<svg width="24" height="24" viewBox="0 0 24 24" xmlns="http://www.w3.org/2000/svg">
    <path d="M7,2 L17,2 C18.1045695,2 19,2.8954305 19,4 L19,20 C19,21.1045695 18.1045695,22 17,22 L7,22 C5.8954305,22 5,21.1045695 5,20 L5,4 C5,2.8954305 5.8954305,2 7,2 M7,4 L7,8 L17,8 L17,4 L7,4 Z M7,10 L7,12 L9,12 L9,10 L7,10 Z M11,10 L11,12 L13,12 L13,10 L11,10 Z M15,10 L15,12 L17,12 L17,10 L15,10 Z M7,14 L7,16 L9,16 L9,14 L7,14 Z M11,14 L11,16 L13,16 L13,14 L11,14 Z M15,14 L15,16 L17,16 L17,14 L15,14 Z M7,18 L7,20 L9,20 L9,18 L7,18 Z M11,18 L11,20 L13,20 L13,18 L11,18 Z M15,18 L15,20 L17,20 L17,18 L15,18 Z" fill="#000000" fill-rule="nonzero"/>
</svg>
