<?xml version="1.0" encoding="UTF-8"?>
<svg width="27px" height="26px" viewBox="0 0 27 26" version="1.1" xmlns="http://www.w3.org/2000/svg" xmlns:xlink="http://www.w3.org/1999/xlink">
    <title>Group</title>
    <g id="Hi-FI" stroke="none" stroke-width="1" fill="none" fill-rule="evenodd">
        <g id="Ubdates" transform="translate(-264, -1115)" fill="#000000">
            <g id="Group" transform="translate(264, 1115)">
                <g id="mdi--gold" transform="translate(15, 0)" fill-rule="nonzero">
                    <path d="M0.5,11 L1.22,8.5 L4.58,8.5 L5.3,11 L0.5,11 Z M6.5,11 L7.25,8.5 L10.75,8.5 L11.5,11 L6.5,11 Z M3.8,8.3 L4.55,5.8 L8.05,5.8 L8.8,8.3 L3.8,8.3 Z" id="Shape"></path>
                </g>
                <g id="mdi--gold-copy" transform="translate(0, 1)" fill-rule="nonzero">
                    <path d="M0.5,11 L1.22,8.5 L4.58,8.5 L5.3,11 L0.5,11 Z M6.5,11 L7.25,8.5 L10.75,8.5 L11.5,11 L6.5,11 Z M3.8,8.3 L4.55,5.8 L8.05,5.8 L8.8,8.3 L3.8,8.3 Z" id="Shape"></path>
                </g>
                <g transform="translate(-2, -1)" fill-rule="nonzero" id="Layer_1">
                    <g transform="translate(0, 0.63)">
                        <path d="M23.9833106,12.7906894 C24.024202,13.094963 23.9836835,13.2507177 23.6819469,13.4738435 C23.3687689,13.7054298 22.7275275,13.8321267 22.4025814,13.8733755 L17,14.30471 L20.0909196,24.3690194 L21.7185238,24.3690194 C22.3044613,24.3690194 22.7810238,24.8347159 22.7810238,25.4016507 C22.7810238,25.9711165 22.2913326,26.0592805 21.7079993,26.0592805 L10.5986243,26.0592805 C10.0126868,26.0592805 9.54664881,25.9685855 9.54664881,25.4016507 C9.54664881,24.8321849 10.0258155,24.3690194 10.6091488,24.3690194 L12.2289405,24.3690194 L14.53125,14.6210799 C12.8564603,14.7268232 11.031967,14.9058664 9.05777026,15.1582095 C8.2906476,15.2562636 7.94550907,15.2879366 8.02235465,15.2532284 C7.39446146,15.324611 6.87161817,15.0455777 6.78939631,14.4337633 C6.70606298,13.8136783 7.74235167,13.5643811 8.3803725,13.4833904 C8.61564932,13.4715872 8.67109147,13.4715872 8.54669896,13.4833904 C8.5034709,13.4870711 8.6649429,13.4590114 8.3803725,13.4833904 C8.34488816,13.4864303 8.24474671,13.4834029 8.24487199,13.4833904 C11.0690359,13.2018929 8.87615665,13.4341484 8.3803725,13.4833904 C8.32090084,13.4892972 8.31228205,13.4836617 8.31465641,13.4833904 C9.20356816,13.381814 9.64508045,13.391281 8.46067476,13.4833904 C7.71342877,13.5576396 7.68666135,13.5576396 8.3803725,13.4833904 C9.07408366,13.4091412 9.43427199,13.342348 9.4609375,13.2830109 C9.49474707,13.308247 9.41526938,13.3372434 9.22250443,13.37 C8.20710917,13.4769422 7.20487549,13.5832985 8.72874525,13.4184034 C13.0193892,12.9541208 17.817042,12.5392518 23.1217036,12.1737965 C23.6405527,12.1716685 23.927755,12.3772994 23.9833106,12.7906894 Z" id="Shape"></path>
                    </g>
                </g>
            </g>
        </g>
    </g>
</svg>