<?xml version="1.0" encoding="UTF-8"?>
<svg width="1125px" height="1257px" viewBox="0 0 1125 1257" version="1.1" xmlns="http://www.w3.org/2000/svg" xmlns:xlink="http://www.w3.org/1999/xlink">
    <title>Layer_1</title>
    <g id="Hi-FI" stroke="none" stroke-width="1" fill="none" fill-rule="evenodd">
        <g id="Layer_1" fill="#005F6B">
            <path d="M699.62,1113.02 L699.62,1113.02 C679.56,1157.5 666.3,1205.77 661.22,1256.39 L1085.73,1166.15 C1105.79,1121.68 1119.04,1073.4 1124.13,1022.78 L699.62,1113.02 L699.62,1113.02 Z" id="Path"></path>
            <path d="M1085.73,895.8 C1105.79,851.33 1119.05,803.05 1124.13,752.43 L793.45,822.76 L793.45,687.56 L1085.72,625.45 C1105.78,580.98 1119.04,532.7 1124.13,482.08 L793.44,552.35 L793.44,66.13 C742.77,94.58 697.77,132.45 661.19,177.12 L661.19,580.47 L528.94,608.58 L528.94,0 C478.27,28.44 433.27,66.32 396.69,110.99 L396.69,636.68 L100.78,699.56 C80.72,744.03 67.45,792.31 62.36,842.93 L396.69,771.88 L396.69,942.14 L38.39,1018.28 C18.33,1062.75 5.07,1111.03 -0.01,1161.65 L375.03,1081.95 C405.56,1075.6 431.8,1057.55 448.86,1032.71 L517.64,930.74 L517.64,930.72 C524.78,920.17 528.94,907.45 528.94,893.75 L528.94,743.77 L661.19,715.66 L661.19,986.06 L1085.72,895.78 L1085.73,895.8 Z" id="Path"></path>
        </g>
    </g>
</svg>